<svg height="331" viewBox="0 0 636 331" width="636" xmlns="http://www.w3.org/2000/svg"><g fill="#fff" fill-rule="evenodd"><path d="m405.874768 124.382422 13.797572-40.5523057h20.165682l-24.552602 61.5664117v41.184837h-18.962817v-40.411743l-24.481846-62.3395057h20.307196zm69.641395 63.604568c-9.858827 0-17.630202-3.478889-23.314358-10.436771-5.684157-6.957883-8.526192-16.808879-8.526192-29.553284 0-12.931822 2.570804-23.0288 7.712489-30.291236 5.141685-7.262437 12.311633-10.8936 21.510061-10.8936 8.585198 0 15.354196 3.104059 20.307195 9.312271 4.953 6.208212 7.429462 14.911291 7.429462 26.1095v9.979943h-37.854877c.141514 6.98131 1.580221 12.17036 4.316164 15.567306 2.735942 3.396946 6.509599 5.095394 11.321084 5.095394 6.132285 0 12.40599-1.897576 18.821304-5.692785v15.391603c-6.037942 3.607791-13.278647 5.411659-21.722332 5.411659zm-2.759514-66.767227c-2.688771 0-4.905795 1.417326-6.651137 4.252019-1.745343 2.834692-2.759513 7.227229-3.042542 13.177742h19.104331c-.094343-5.716241-.967001-10.05021-2.618001-13.002039s-3.915194-4.427722-6.792651-4.427722zm70.348963 50.953937c2.6416 0 5.495428-.655952 8.56157-1.967876v14.618508c-3.066142 2.10845-7.665287 3.162658-13.797572 3.162658-6.839856 0-11.910708-2.026423-15.212707-6.079331-3.302-4.052908-4.952975-10.132179-4.952975-18.237995v-40.552306h-7.641732v-8.363473l9.835192-6.747004 4.811461-16.5863852h12.028653v16.8675102h14.292869v14.829352h-14.292869v41.184837c0 5.247696 2.122682 7.871505 6.36811 7.871505zm41.19717 14.407665h-18.821303v-78.293359h18.821303zm-19.599628-98.7452151c0-3.0923923.908036-5.5404995 2.724136-7.344395s4.351526-2.7058297 7.606354-2.7058297c3.066142 0 5.51902.9019342 7.358705 2.7058297 1.839686 1.8038955 2.759514 4.2520027 2.759514 7.344395 0 3.1861012-.943414 5.6576352-2.830271 7.4146763-1.886857 1.757041-4.316148 2.6355484-7.287948 2.6355484-3.113314 0-5.613362-.8785074-7.500219-2.6355484-1.886856-1.7570411-2.830271-4.2285751-2.830271-7.4146763z"/><path d="m396.776733 320.049371v-102.751249h19.245844v86.024301h26.675306v16.726948zm95.733922 0-3.750109-10.682757h-.424541c-2.783114 4.591734-5.660527 7.754361-8.632327 9.487975-2.971799 1.733614-6.721871 2.600408-11.250328 2.600408-5.802085 0-10.365851-2.155272-13.691436-6.465879-3.325586-4.310608-4.988353-10.307885-4.988353-17.992011 0-8.246379 2.275987-14.372504 6.828029-18.378558 4.552042-4.006053 11.356418-6.219892 20.413331-6.641582l10.472003-.421687v-5.622504c0-7.309291-3.184023-10.963881-9.552165-10.963881-4.717142 0-10.141775 1.827295-16.274059 5.481941l-6.509624-12.931758c7.830456-4.919715 16.34477-7.379536 25.543197-7.379536 8.349342 0 14.705596 2.377827 19.068952 7.133551 4.363357 4.755725 6.545002 11.490948 6.545002 20.205872v52.570406zm-16.344816-13.212883c3.443514 0 6.191208-1.53446 8.243165-4.603425s3.07792-7.156952 3.07792-12.264085v-6.606441l-5.802056.281125c-4.292599.234272-7.441245 1.452469-9.44603 3.654627s-3.007163 5.481919-3.007163 9.839381c0 6.465911 2.311365 9.698818 6.934164 9.698818zm80.945756-66.556383c7.170056 0 12.806957 3.537456 16.91087 10.612475 4.103914 7.075019 6.15584 17.031435 6.15584 29.869549 0 12.978677-2.063719 23.005374-6.191218 30.080393-4.1275 7.075018-9.846949 10.612475-17.158519 10.612475-3.537857 0-6.662917-.761373-9.375273-2.284142-2.712357-1.522769-5.271368-4.205145-7.677111-8.047208h-1.202865l-3.184055 8.925724h-13.868329v-109.35769h18.821303v25.58239c0 1.077652-.023585 2.202141-.070756 3.373502-.047172 1.171361-.353782 5.271062-.919839 12.299226h.990595c2.3114-4.310607 4.811448-7.332673 7.500219-9.066286 2.688771-1.733614 5.778453-2.600408 9.269138-2.600408zm-6.509624 15.883572c-3.585028 0-6.167624 1.663307-7.747867 4.989971-1.580243 3.326665-2.417523 9.183381-2.511866 17.570323v1.897595c0 9.089759.813695 15.485293 2.441109 19.186793s4.280767 5.552222 7.960138 5.552222c6.792685 0 10.188976-8.29311 10.188976-24.879577 0-16.211633-3.443462-24.317327-10.33049-24.317327zm85.120406 40.973993c0 7.637272-2.252402 13.599408-6.757272 17.886588-4.504871 4.287181-11.144149 6.430739-19.918034 6.430739-7.783285 0-14.222087-1.522747-19.316601-4.568284v-16.234979c2.594429 1.780469 5.625147 3.256361 9.092247 4.427722 3.467099 1.17136 6.521403 1.757032 9.163002 1.757032 2.924629 0 5.153445-.714519 6.686516-2.143579 1.533071-1.429061 2.299595-3.314923 2.299595-5.657644 0-2.389576-.801902-4.474567-2.40573-6.255035-1.603828-1.780469-4.551998-3.959167-8.844597-6.53616-5.707743-3.373519-9.799802-6.969543-12.276302-10.788179-2.476499-3.818636-3.714731-8.328307-3.714731-13.529148 0-6.653329 2.299573-11.924373 6.898786-15.813291 4.599214-3.888918 10.908297-5.833347 18.927439-5.833347 6.98137 0 13.561685 1.827295 19.741141 5.481941l-6.155839 13.423726c-5.047343-2.717557-9.48139-4.076315-13.302275-4.076315-2.405743 0-4.210022.632526-5.412894 1.897595-1.202871 1.26507-1.804298 2.811243-1.804298 4.638565 0 2.10845.742939 3.982599 2.228839 5.622504s4.257179 3.678042 8.313922 6.114472c4.905828 2.951829 8.34929 5.458503 10.330489 7.520098 1.9812 2.061595 3.514248 4.404282 4.599191 7.02813s1.627406 5.692767 1.627406 9.206849z"/><path d="m330.052311 230.091663c-2.736414-7.485962-4.518169-51.36792-4.518169-51.36792l3.324846 1.001125s-13.550392-54.187413-24.047522-65.894445l3.007998-2.578407s-26.051482-38.5698662-55.189144-44.7850126c-3.629349-6.3826815-8.25862-13.0800023-8.25862-13.0800023l4.991383.2615183c-7.740142-9.5985397-27.203656-24.3130315-27.203656-24.3130315l10.085639.3187254c-13.463978-9.9417824-29.828967-13.0268814-29.828967-13.0268814-3.242547-7.04464981-12.287114-11.31066745-12.287114-11.31066745.345652 6.17019795-5.176555 6.85668355-5.176555 6.85668355-11.003263-1.6385758-2.41545-11.65391027-2.41545-11.65391027-12.08137-.6864856-22.681373 9.59853967-22.681373 9.59853967-5.764985-2.74185616 0-9.59853967 0-9.59853967-10.945654.68648559-18.743405 13.02688147-18.743405 13.02688147-6.213511 0-9.665918-9.59853972-9.665918-9.59853972-5.176554 5.48371233-2.888666 11.99306682-2.888666 11.99306682-18.208467 6.0966459-31.9769485 15.7728238-31.9769485 15.7728238h6.2135105c-8.1598619 5.3815568-19.3935604 24.7379988-24.8293536 34.7247298-29.1788116 6.1375081-55.3002466 44.8136161-55.3002466 44.8136161l3.0079976 2.578407c-10.5012448 11.707032-24.05163636 65.894445-24.05163636 65.894445l3.32484555-1.001125s-1.7817551 43.877871-4.51816882 51.36792c0 0 1.90108742-.604762 3.98323079-3.256721 0 0-3.83509411 22.584559-2.58416213 29.388122 1.24681708 6.807649 2.75698826 15.948531 8.96638417 16.230481 0 0 1.5677799 5.802437 11.0526425 3.019719 0 0 2.9627337 5.663506 10.2543504 4.233328 4.7691782-.931659 10.7399095-5.737058 13.5174723-11.60079 7.4726726 4.834003 12.5340093-8.793553 12.5340093-8.793553 1.9545812-11.678428.6048914-20.034755-1.0451866-22.23723-1.654193-2.206561-8.6495363-16.720828-8.6495363-16.720828l6.2258556 2.341407c-8.3656077-15.147632-.6501555-55.678886-.6501555-55.678886l2.9709635 5.65942c.3168479-14.14242 10.8139778-33.580587 10.8139778-33.580587-1.7282613 10.971511-2.8927802 23.001354-2.6006217 34.761506.9217393 37.478844 8.7030301 65.359149 6.4233711 77.699545l6.4604053-10.060283s.9176245 25.596106 4.6045819 33.364017c3.6828425 7.767912 2.5306683 21.938936 1.608929 25.596106l6.2135108-10.056197s2.3002335 24.909621 3.9132774 31.995133c1.608929 7.085512 11.0444126 8.912054 23.0105646 8.000826 11.970267-.915314 18.640533 2.513028 21.401636-7.771998 2.761103-10.285025-5.061337-13.484538 6.67438-38.16533 0 0 5.983076.992952 14.51328 1.56911l-.181056.396364c1.847594-.012259 3.645809-.053121 5.3823-.122587 1.736491.06538 3.534706.110328 5.382299.122587l-.176941-.396364c8.530204-.576158 14.509165-1.56911 14.509165-1.56911 11.735718 24.680792 3.913278 27.880305 6.674381 38.16533 2.761103 10.285026 9.435484 6.856684 21.401636 7.771998s21.401635-.915314 23.014679-8.000826 3.913278-31.995133 3.913278-31.995133l6.21351 10.056197c-.921739-3.65717-2.069798-17.824108 1.613044-25.596106 3.682843-7.767911 4.600467-33.364017 4.600467-33.364017l6.464521 10.056197c-2.279659-12.340396 5.501631-40.220701 6.423371-77.699545.288043-11.760152-.872361-23.785909-2.600622-34.761506 0 0 10.49713 19.438166 10.813978 33.580587l2.966848-5.65942s7.715453 40.531254-.650155 55.678885l6.221741-2.341406s-6.995344 14.514267-8.649537 16.720828c-1.654193 2.202474-2.999768 10.558802-1.045186 22.23723 0 0 5.061336 13.627556 12.534009 8.793553 2.777563 5.867818 8.752409 10.669131 13.517472 11.60079 7.291617 1.426092 10.254351-4.233328 10.254351-4.233328 9.484862 2.782718 11.052642-3.01972 11.052642-3.01972 6.209396-.281949 7.715452-9.422832 8.966384-16.230481 1.246817-6.803562-2.584162-29.388121-2.584162-29.388121 2.078029 2.651959 3.979116 3.260807 3.979116 3.260807zm-284.4923839 25.747296c-3.3577648-4.711416-9.3861048 3.877826-9.3861048 3.877826s-.5719722-11.899084 5.176554-14.232317c0 0 4.9502342-1.11554 5.7402965 5.651247.2180901 1.871491-.5225933 3.367048-1.5307457 4.703244zm60.8265679-180.9379897c0-3.2076856 2.617081-5.806524 5.847284-5.806524s5.851399 2.5988384 5.851399 5.806524c0 3.2076857-2.617081 5.806524-5.851399 5.806524-3.226088.0040863-5.847284-2.5988383-5.847284-5.806524zm114.768895 27.5411487c-.699535.457657-17.529508 11.196253-55.909253 11.196253-38.379746 0-55.213834-10.738596-55.909253-11.196253-.954659-.625193-1.218013-1.900094-.588432-2.8480983.629581-.9480039 1.913432-1.2095223 2.868091-.58433.156366.1021556 16.648917 10.5138533 53.629594 10.5138533 36.976562 0 53.473227-10.4116977 53.633709-10.5179395.958773-.6170198 2.23851-.3555015 2.86809.5925024.621352.9480041.357997 2.2188191-.592546 2.8440121zm-2.90924-21.7305384c-3.230203 0-5.847284-2.5988384-5.847284-5.806524 0-3.2076857 2.617081-5.806524 5.847284-5.806524s5.851399 2.5988383 5.851399 5.806524c0 3.2035994-2.621196 5.806524-5.851399 5.806524zm76.068186 179.0052054s-6.02834-8.589242-9.386104-3.877826c-1.012268-1.336196-1.752951-2.831753-1.534861-4.703244.790062-6.766787 5.740296-5.651247 5.740296-5.651247 5.752642 2.33732 5.180669 14.232317 5.180669 14.232317z"/></g></svg>